<?xml version="1.0" encoding="UTF-8"?>
<svg id="Layer_1" data-name="Layer 1" xmlns="http://www.w3.org/2000/svg" viewBox="0 0 24 24">
  <defs>
    <style>
      .cls-1 {
        fill: #fff;
      }

      .cls-2 {
        fill: #c1272d;
      }
    </style>
  </defs>
  <circle class="cls-2" cx="12" cy="12" r="12"/>
  <g>
    <path class="cls-1" d="m11.12,16.23v-1.2c0-5.58-.24-8.67-.72-9.28l-.3-.36c-.05-.07-.07-.12-.07-.16,0-.15.14-.22.43-.22.49,0,.94.09,1.36.26.41.17.62.36.62.57,0,.07-.04.2-.11.39-.04.12-.08.32-.11.59l-.11,1.2c-.07.7-.1,1.45-.1,2.26.86-.14,1.49-.28,1.89-.43l1.01-.39c.16-.07.34-.1.52-.1.26,0,.51.07.75.2.24.13.36.27.36.41,0,.21-.42.4-1.25.56-.83.16-1.79.24-2.89.24h-.4v5.38c.42-.05.74-.09.95-.11,1.39-.16,2.21-.27,2.45-.3l1.51-.25c.17-.03.34-.04.52-.04.37,0,.75.12,1.13.36.38.24.57.49.57.73,0,.16-.12.24-.37.24s-.58-.03-1-.09c-.44-.06-.96-.09-1.56-.09-3.89,0-6.95.3-9.19.89-.54.14-.87.21-1.02.21-.42,0-.83-.22-1.25-.67l-.07-.08.19-.07c.38-.04.87-.08,1.47-.11.2-.01.78-.07,1.75-.16l2.36-.25c.05,0,.28-.03.66-.08Z"/>
    <path class="cls-1" d="m6.01,18.15c-.55,0-1.1-.28-1.61-.83l-.03-.03-.48-.6.87-.34h.07c.38-.05.88-.08,1.49-.12.2-.01.78-.07,1.73-.16l2.36-.25s.1-.01.23-.03v-.77c0-7.4-.43-8.74-.62-8.98l-.3-.37c-.12-.15-.17-.3-.17-.46,0-.12.04-.71.92-.71.55,0,1.07.1,1.55.3.61.25.92.6.92,1.02,0,.13-.04.29-.14.56-.01.04-.05.16-.08.47l-.11,1.2c-.05.51-.08,1.06-.09,1.63.54-.1.94-.2,1.21-.31l1.01-.39c.21-.09.45-.13.7-.13.34,0,.68.09.99.26.41.22.62.51.62.84,0,.64-.79.88-1.64,1.04-.83.16-1.81.24-2.89.25v4.33c.16-.02.3-.04.41-.05,1.37-.16,2.19-.26,2.43-.3l1.5-.25c.2-.03.4-.05.6-.05.46,0,.93.15,1.39.44.53.34.8.72.8,1.14,0,.34-.22.73-.86.73-.27,0-.62-.03-1.07-.1-.41-.06-.91-.09-1.49-.09-3.83,0-6.88.29-9.06.87-.76.2-1.01.23-1.14.23Zm10.2-2.08c.62,0,1.17.03,1.62.09.2.03.37.05.53.06-.02-.01-.04-.03-.06-.04-.3-.19-.58-.29-.86-.29-.15,0-.3.01-.44.03l-.79.13h0Zm-5.38-10.56c.27.41.56,1.42.69,4.65,0-.77.04-1.51.1-2.19l.11-1.2c.03-.32.07-.55.13-.71.03-.08.05-.14.06-.18-.04-.03-.13-.09-.3-.16-.25-.1-.52-.17-.8-.2Zm4.6,4.33c-.12,0-.24.02-.34.06l-.65.25c.27-.03.53-.07.77-.12.25-.05.44-.09.57-.13-.11-.04-.23-.06-.35-.06Z"/>
  </g>
</svg>